<svg xmlns="http://www.w3.org/2000/svg" viewBox="0 0 229.66 194.42"><defs><style>.cls-1{fill:#fff;}</style></defs><title>logo_onblack</title><g id="Layer_2" data-name="Layer 2"><g id="Foreground"><path class="cls-1" d="M114.83,191.42a13.2,13.2,0,0,1-5.82-1.37L35,153a12.92,12.92,0,0,1-7.18-11.62V51.13a13,13,0,0,1,12.85-13l70.46-.78A13.06,13.06,0,0,1,117,38.72l77.69,38.85a12.93,12.93,0,0,1,7.19,11.62v52.23A12.93,12.93,0,0,1,194.64,153l-74,37A13,13,0,0,1,114.83,191.42Z"/><path class="cls-1" d="M111.13,40.35a10.07,10.07,0,0,1,4.48,1L193.3,80.25a9.94,9.94,0,0,1,5.53,8.94v52.23a9.94,9.94,0,0,1-5.53,8.94l-74,37a10,10,0,0,1-8.94,0l-74-37a9.94,9.94,0,0,1-5.53-8.94V51.13a10,10,0,0,1,9.89-10l70.3-.78h.11m0-6H111l-70.31.78a16,16,0,0,0-15.82,16v90.29a16,16,0,0,0,8.84,14.31l74,37a16,16,0,0,0,14.31,0l74-37a16,16,0,0,0,8.85-14.31V89.19A16,16,0,0,0,196,74.88L118.29,36a16,16,0,0,0-7.16-1.69Z"/><path d="M153.45,155.61a13,13,0,0,1-9.57-4.19l-24.86-27a18.9,18.9,0,0,0-5.47-4.12L28.8,77.93a12.63,12.63,0,0,1-3.75-2.82L6.44,54.91a13,13,0,0,1,3.75-20.43L70.4,4.37A13,13,0,0,1,85.78,7.19l24.85,27a18.9,18.9,0,0,0,5.48,4.12l84.75,42.38a12.63,12.63,0,0,1,3.75,2.82l18.6,20.2a13,13,0,0,1-3.74,20.43l-60.22,30.11a13,13,0,0,1-5.8,1.37Z"/><path class="cls-1" d="M76.21,6a10,10,0,0,1,7.36,3.23l24.86,27A21.64,21.64,0,0,0,114.77,41l84.75,42.38a9.72,9.72,0,0,1,2.88,2.17L221,105.73a10,10,0,0,1-2.88,15.72l-60.22,30.11a9.88,9.88,0,0,1-4.46,1.05,10,10,0,0,1-7.36-3.22l-24.86-27a21.77,21.77,0,0,0-6.34-4.77L30.14,75.25a9.89,9.89,0,0,1-2.89-2.17L8.65,52.88a10,10,0,0,1,2.88-15.72L71.74,7.06A10,10,0,0,1,76.21,6m0-6a15.94,15.94,0,0,0-7.15,1.69L8.85,31.8A16,16,0,0,0,4.23,57l18.61,20.2a16.17,16.17,0,0,0,4.61,3.47L112.2,123a16.21,16.21,0,0,1,4.62,3.47l24.85,27a16,16,0,0,0,18.93,3.47l60.21-30.1a16,16,0,0,0,4.61-25.15l-18.6-20.21A16.21,16.21,0,0,0,202.2,78L117.45,35.62a16.17,16.17,0,0,1-4.61-3.47L88,5.16A16,16,0,0,0,76.21,0Z"/></g></g></svg>