<svg xmlns="http://www.w3.org/2000/svg" viewBox="0 0 218.73 155.94"><defs><style>.cls-1{fill:#fff;}</style></defs><title>logo_full_onwhite</title><g id="Layer_2" data-name="Layer 2"><g id="Foreground"><path d="M110.36,95.71a6.52,6.52,0,0,1-2.91-.69l-37-18.5a6.45,6.45,0,0,1-3.59-5.81V25.56a6.52,6.52,0,0,1,6.42-6.5l35.16-.39a6.63,6.63,0,0,1,3,.69l38.84,19.42a6.47,6.47,0,0,1,3.6,5.82V70.71a6.46,6.46,0,0,1-3.6,5.81l-37,18.5A6.48,6.48,0,0,1,110.36,95.71Z" transform="translate(-2.27)"/><path d="M108.51,20.17a5.12,5.12,0,0,1,2.24.53l38.84,19.43a5,5,0,0,1,2.77,4.47V70.71a5,5,0,0,1-2.77,4.47l-37,18.5a5,5,0,0,1-4.47,0l-37-18.5a5,5,0,0,1-2.76-4.47V25.56a5,5,0,0,1,4.94-5l35.15-.39h.06m0-3h-.09l-35.15.39a8,8,0,0,0-7.91,8V70.71a8,8,0,0,0,4.42,7.15l37,18.5a7.94,7.94,0,0,0,7.15,0l37-18.5a8,8,0,0,0,4.43-7.15V44.6a8,8,0,0,0-4.43-7.16L112.09,18a8,8,0,0,0-3.58-.85Z" transform="translate(-2.27)"/><path class="cls-1" d="M129.67,77.81a6.54,6.54,0,0,1-4.79-2.1L112.45,62.22a9.26,9.26,0,0,0-2.74-2.07L67.34,39a6.67,6.67,0,0,1-1.88-1.41l-9.3-10.1A6.5,6.5,0,0,1,58,17.24l30.1-15a6.39,6.39,0,0,1,2.91-.69,6.5,6.5,0,0,1,4.78,2.1l12.43,13.49A9.36,9.36,0,0,0,111,19.15l42.37,21.19a6.49,6.49,0,0,1,1.88,1.41l9.3,10.1a6.51,6.51,0,0,1-1.87,10.22L132.57,77.12a6.51,6.51,0,0,1-2.9.69Z" transform="translate(-2.27)"/><path d="M91.05,3a5,5,0,0,1,3.68,1.61l12.43,13.5a10.91,10.91,0,0,0,3.17,2.38L152.7,41.68a5,5,0,0,1,1.44,1.08l9.31,10.1A5,5,0,0,1,162,60.72L131.9,75.78a5,5,0,0,1-2.23.53A5,5,0,0,1,126,74.69L113.56,61.2a11,11,0,0,0-3.17-2.39L68,37.63a5.12,5.12,0,0,1-1.44-1.09l-9.3-10.1a5,5,0,0,1,1.44-7.86l30.1-15A5,5,0,0,1,91.05,3m0-3a8.1,8.1,0,0,0-3.58.84L57.37,15.9a8,8,0,0,0-2.31,12.57l9.3,10.1a7.85,7.85,0,0,0,2.31,1.74L109,61.5a8,8,0,0,1,2.31,1.73l12.43,13.5a8,8,0,0,0,9.46,1.73l30.11-15a8,8,0,0,0,2.3-12.58l-9.3-10.1A8,8,0,0,0,154,39L111.67,17.81a7.85,7.85,0,0,1-2.31-1.74L96.93,2.58A8,8,0,0,0,91.05,0Z" transform="translate(-2.27)"/><path d="M6,135.52c1,4.53,4.07,7.1,9.6,7.1,6.08,0,8.44-3,8.44-6.6,0-3.81-1.77-6.08-9.29-7.92-7.91-1.95-11-4.59-11-9.67s3.63-9.3,11.4-9.3c8.12,0,11.51,4.84,12,9.32H23.39c-.74-3.52-3-6.2-8.41-6.2-4.78,0-7.41,2.19-7.41,5.9s2.19,5.09,8.61,6.66c10.07,2.48,11.69,6.47,11.69,10.88,0,5.46-4,10-12.46,10-8.92,0-12.45-5.06-13.14-10.15Z" transform="translate(-2.27)"/><path d="M30.82,119.58h4.62v-7.81h3.41v7.81h5.91v3H38.85v15.93c0,2.7.62,4.18,3,4.18a9.83,9.83,0,0,0,2.47-.27v2.75a10.4,10.4,0,0,1-3.48.47c-3.61,0-5.42-1.84-5.42-6v-17H30.82Z" transform="translate(-2.27)"/><path d="M68.93,137.76c0,2.5,0,6.26,0,7.48h-3.3a40.85,40.85,0,0,1-.16-4.18c-1.16,2.94-3.72,4.79-8,4.79-4,0-8.45-1.76-8.45-9.33V119.58h3.38v16.17c0,3.58,1.12,7,5.83,7,5.27,0,7.28-3,7.28-9.87V119.58h3.41Z" transform="translate(-2.27)"/><path d="M97.51,107.73v30.19c0,2.43,0,4.8,0,7.32H94.28c-.11-.64-.18-2.85-.19-4-1.27,2.92-4,4.61-8.37,4.61-6.64,0-10.66-5.39-10.66-13.15S79.42,119,86.46,119c4.86,0,6.9,2,7.63,3.59V107.73ZM78.63,132.58c0,6.65,3.33,10.25,7.57,10.25,6.42,0,8-4.56,8-10.92,0-6.21-1.41-9.91-7.62-9.91C81.78,122,78.63,125.84,78.63,132.58Z" transform="translate(-2.27)"/><path d="M106.3,119.58c4.71,13.59,7,20,7.76,22.69h0c.94-3,2.89-9,7.51-22.69h3.49l-9.45,27c-2.67,7.56-4.56,9.35-9.47,9.35a20.19,20.19,0,0,1-2.54-.17v-3.15a17.75,17.75,0,0,0,2.22.14c3.5,0,4.7-1.63,6.42-6.45l-9.71-26.73Z" transform="translate(-2.27)"/><path d="M143.72,109.64h13c7.14,0,10.73,3.77,10.73,8.82a7.75,7.75,0,0,1-5.32,7.77,8.89,8.89,0,0,1,6.55,8.67c0,6.94-5.24,10.34-11.69,10.34H143.72Zm12.06,15.08c5.71,0,7.9-2.17,7.9-6,0-3.34-2.36-5.92-7-5.92h-9.41v11.92Zm-8.49,17.37h9.46c4.59,0,8.14-2.23,8.14-7.11,0-4.23-2.71-7.1-9.35-7.1h-8.25Z" transform="translate(-2.27)"/><path d="M196.94,132.36c0,7.25-4.08,13.49-11.82,13.49-7.12,0-11.49-5.69-11.49-13.42,0-7.45,4.19-13.46,11.76-13.46C192.36,119,196.94,124.31,196.94,132.36Zm-19.75,0c0,5.89,3.07,10.44,8.13,10.44s8.06-4.26,8.06-10.43c0-5.93-2.87-10.45-8.16-10.45S177.19,126.39,177.19,132.41Z" transform="translate(-2.27)"/><path d="M203.39,119.58c4,6,5.66,8.69,6.64,10.18h.05c1.17-1.71,3.55-5.24,6.94-10.18h3.86L212.06,132,221,145.24h-4c-3.43-5.27-5.87-9-7-10.71h-.05c-.92,1.47-3.12,4.93-6.93,10.71h-3.88L208,132.31l-8.53-12.73Z" transform="translate(-2.27)"/></g></g></svg>