<svg xmlns="http://www.w3.org/2000/svg" xmlns:xlink="http://www.w3.org/1999/xlink" viewBox="0 0 114.83 97.21"><defs><style>.cls-1{fill:#fff;}.cls-2{fill:url(#linear-gradient);}</style><linearGradient id="linear-gradient" x1="19.81" y1="2.05" x2="95.02" y2="77.26" gradientUnits="userSpaceOnUse"><stop offset="0" stop-color="#00d460"/><stop offset="1" stop-color="#00daa9"/></linearGradient></defs><title>logo_mini_secondary</title><g id="Layer_2" data-name="Layer 2"><g id="Foreground"><path class="cls-1" d="M57.41,95.71a6.51,6.51,0,0,1-2.9-.69l-37-18.5a6.46,6.46,0,0,1-3.6-5.81V25.56a6.52,6.52,0,0,1,6.43-6.49l35.16-.4a6.63,6.63,0,0,1,3,.69L97.32,38.78a6.46,6.46,0,0,1,3.59,5.82V70.71a6.45,6.45,0,0,1-3.59,5.81L60.32,95A6.52,6.52,0,0,1,57.41,95.71Z"/><path class="cls-1" d="M55.57,20.17a5.08,5.08,0,0,1,2.23.53L96.65,40.13a5,5,0,0,1,2.76,4.47V70.71a5,5,0,0,1-2.76,4.47l-37,18.5a5,5,0,0,1-4.47,0l-37-18.5a5,5,0,0,1-2.77-4.47V25.56a5,5,0,0,1,4.95-5l35.15-.39h.06m0-3h-.09l-35.15.39a8,8,0,0,0-7.92,8V70.71a8,8,0,0,0,4.43,7.15l37,18.5a7.94,7.94,0,0,0,7.15,0l37-18.5a8,8,0,0,0,4.42-7.15V44.6A8,8,0,0,0,98,37.44L59.15,18a8,8,0,0,0-3.58-.85Z"/><path class="cls-2" d="M76.72,77.81a6.53,6.53,0,0,1-4.78-2.1L59.51,62.22a9.26,9.26,0,0,0-2.74-2.07L14.4,39a6.67,6.67,0,0,1-1.88-1.41l-9.3-10.1A6.51,6.51,0,0,1,5.09,17.24l30.11-15a6.39,6.39,0,0,1,2.91-.69,6.5,6.5,0,0,1,4.78,2.1L55.32,17.09a9.23,9.23,0,0,0,2.74,2.06l42.37,21.19a6.32,6.32,0,0,1,1.87,1.41l9.31,10.1a6.5,6.5,0,0,1-1.88,10.22L79.63,77.12a6.52,6.52,0,0,1-2.91.69Z"/><path class="cls-1" d="M38.1,3a5.06,5.06,0,0,1,3.69,1.61l12.42,13.5a11.19,11.19,0,0,0,3.17,2.38L99.76,41.68a5.09,5.09,0,0,1,1.44,1.08l9.3,10.1a5,5,0,0,1-1.44,7.86L79,75.78A5,5,0,0,1,73,74.69L60.62,61.2a10.94,10.94,0,0,0-3.18-2.39L15.07,37.63a5,5,0,0,1-1.44-1.09L4.32,26.44a5,5,0,0,1,1.45-7.86l30.1-15A5,5,0,0,1,38.1,3m0-3a8.09,8.09,0,0,0-3.57.84L4.42,15.9a8,8,0,0,0-2.3,12.57l9.3,10.1a7.85,7.85,0,0,0,2.31,1.74L56.1,61.5a8,8,0,0,1,2.31,1.73l12.43,13.5a8,8,0,0,0,9.46,1.73l30.1-15a8,8,0,0,0,2.31-12.58l-9.3-10.1A8,8,0,0,0,101.1,39L58.73,17.81a7.85,7.85,0,0,1-2.31-1.74L44,2.58A8,8,0,0,0,38.1,0Z"/></g></g></svg>