<svg xmlns="http://www.w3.org/2000/svg" xmlns:xlink="http://www.w3.org/1999/xlink" viewBox="0 0 360 360"><defs><style>.cls-1{fill:url(#linear-gradient);}.cls-2{fill:#333;}.cls-3{fill:#fff;}</style><linearGradient id="linear-gradient" x2="360" y2="360" gradientUnits="userSpaceOnUse"><stop offset="0" stop-color="#00d460"/><stop offset="1" stop-color="#00daa9"/></linearGradient></defs><title>launcher_full</title><g id="Layer_2" data-name="Layer 2"><g id="Background"><rect class="cls-1" width="360" height="360"/></g><g id="Foreground"><path class="cls-2" d="M180,275.11a13,13,0,0,1-5.81-1.37l-74-37A12.92,12.92,0,0,1,93,225.11V134.82a13,13,0,0,1,12.86-13l70.45-.78a13.16,13.16,0,0,1,5.81,1.37l77.69,38.85A12.92,12.92,0,0,1,267,172.89v52.22a12.92,12.92,0,0,1-7.19,11.63l-74,37A13,13,0,0,1,180,275.11Z"/><path class="cls-2" d="M176.31,124a10.06,10.06,0,0,1,4.47,1.06l77.69,38.84a10,10,0,0,1,5.53,8.95v52.22a10,10,0,0,1-5.53,8.95l-74,37a10,10,0,0,1-8.94,0l-74-37A10,10,0,0,1,96,225.11V134.82a10,10,0,0,1,9.89-10L176.2,124h.11m0-6h-.18l-70.31.78a16,16,0,0,0-15.82,16v90.29a16,16,0,0,0,8.84,14.31l74,37a16,16,0,0,0,14.32,0l74-37A16,16,0,0,0,270,225.11V172.89a16,16,0,0,0-8.84-14.31l-77.7-38.85a16,16,0,0,0-7.15-1.69Z"/><path class="cls-3" d="M218.62,239.31a13,13,0,0,1-9.57-4.2l-24.85-27a19.11,19.11,0,0,0-5.48-4.13L94,161.63a13,13,0,0,1-3.75-2.82l-18.61-20.2a13,13,0,0,1,3.75-20.44l60.21-30.1A13,13,0,0,1,151,90.89l24.85,27a19.11,19.11,0,0,0,5.48,4.13L266,164.37a13,13,0,0,1,3.75,2.82l18.61,20.2a13,13,0,0,1-3.75,20.44l-60.21,30.1a13.07,13.07,0,0,1-5.81,1.38Z"/><path class="cls-2" d="M141.38,89.69a10,10,0,0,1,7.36,3.23l24.86,27a22,22,0,0,0,6.34,4.77l84.75,42.37a10.07,10.07,0,0,1,2.88,2.17l18.61,20.2a10,10,0,0,1-2.88,15.72l-60.22,30.11a9.89,9.89,0,0,1-4.46,1.06,10,10,0,0,1-7.36-3.23l-24.86-27a22,22,0,0,0-6.34-4.77L95.31,159a10.07,10.07,0,0,1-2.88-2.17l-18.61-20.2a10,10,0,0,1,2.88-15.72l60.22-30.11a9.89,9.89,0,0,1,4.46-1.06m0-6a16.11,16.11,0,0,0-7.15,1.69L74,115.49a16,16,0,0,0-4.61,25.15L88,160.84a16,16,0,0,0,4.62,3.47l84.75,42.38a16.12,16.12,0,0,1,4.61,3.47l24.85,27a16,16,0,0,0,18.93,3.48L286,210.51a16,16,0,0,0,4.61-25.15L272,165.16a16.12,16.12,0,0,0-4.61-3.47l-84.75-42.38a16,16,0,0,1-4.62-3.47l-24.85-27a16,16,0,0,0-11.78-5.17Z"/></g></g></svg>