<svg xmlns="http://www.w3.org/2000/svg" xmlns:xlink="http://www.w3.org/1999/xlink" viewBox="0 0 96 80"><defs><style>.cls-1{fill:url(#New_Gradient_Swatch_copy);}.cls-2{fill:#242424;}.cls-3{fill:url(#New_Gradient_Swatch_copy-2);}</style><linearGradient id="New_Gradient_Swatch_copy" x1="16.78" y1="1.19" x2="62.68" y2="47.09" gradientUnits="userSpaceOnUse"><stop offset="0" stop-color="#00d460"/><stop offset="0.22" stop-color="#00d465"/><stop offset="0.47" stop-color="#00d572"/><stop offset="0.72" stop-color="#00d788"/><stop offset="0.99" stop-color="#00daa7"/><stop offset="1" stop-color="#00daa9"/></linearGradient><linearGradient id="New_Gradient_Swatch_copy-2" x1="52.81" y1="44.81" x2="75.19" y2="67.19" xlink:href="#New_Gradient_Swatch_copy"/></defs><title>logo_primary</title><g id="Layer_2" data-name="Layer 2"><g id="Content"><g id="Logo_Primary" data-name="Logo Primary"><polygon class="cls-1" points="16.59 31.18 1.69 16.27 31.8 1.22 47.41 16.82 77.76 32 48 46.88 16.59 31.18"/><path class="cls-2" d="M31.61,2.43l15,15,.23.23.29.15L75.53,32,48,45.76,17.18,30.36,3.38,16.55,31.61,2.43M32,0,0,16,16,32,48,48,80,32,48,16,32,0Z"/><polygon class="cls-3" points="49 48.62 79 33.62 79 63.38 49 78.38 49 48.62"/><path class="cls-2" d="M78,35.24V62.76l-28,14V49.24l28-14M80,32,48,48V80L80,64V32Z"/><polygon class="cls-2" points="16 32 16 64 48 80 48 48 16 32"/><polygon class="cls-2" points="64 64 96 48 80 32 48 48 64 64"/></g></g></g></svg>