<svg xmlns="http://www.w3.org/2000/svg" viewBox="0 0 96 80"><defs><style>.cls-1{fill:#fff;}.cls-2{fill:#242424;}</style></defs><title>logo_mono</title><g id="Layer_2" data-name="Layer 2"><g id="Content"><g id="Logo_Primary" data-name="Logo Primary"><polygon class="cls-1" points="16.59 31.18 1.69 16.27 31.8 1.22 47.41 16.82 77.76 32 48 46.88 16.59 31.18"/><path class="cls-2" d="M31.61,2.43l15,15,.23.23.29.15L75.53,32,48,45.76,17.18,30.36,3.38,16.55,31.61,2.43M32,0,0,16,16,32,48,48,80,32,48,16,32,0Z"/><polygon class="cls-1" points="49 48.62 79 33.62 79 63.38 49 78.38 49 48.62"/><path class="cls-2" d="M78,35.24V62.76l-28,14V49.24l28-14M80,32,48,48V80L80,64V32Z"/><polygon class="cls-2" points="16 32 16 64 48 80 48 48 16 32"/><polygon class="cls-2" points="64 64 96 48 80 32 48 48 64 64"/></g></g></g></svg>