<svg xmlns="http://www.w3.org/2000/svg" xmlns:xlink="http://www.w3.org/1999/xlink" viewBox="0 0 342.46 80"><defs><style>.cls-1{fill:#fff;}.cls-2{fill:url(#New_Gradient_Swatch_copy);}.cls-3{fill:url(#New_Gradient_Swatch_copy-2);}</style><linearGradient id="New_Gradient_Swatch_copy" x1="16.78" y1="1.19" x2="62.68" y2="47.09" gradientUnits="userSpaceOnUse"><stop offset="0" stop-color="#00d460"/><stop offset="0.22" stop-color="#00d465"/><stop offset="0.47" stop-color="#00d572"/><stop offset="0.72" stop-color="#00d788"/><stop offset="0.99" stop-color="#00daa7"/><stop offset="1" stop-color="#00daa9"/></linearGradient><linearGradient id="New_Gradient_Swatch_copy-2" x1="52.81" y1="44.81" x2="75.19" y2="67.19" xlink:href="#New_Gradient_Swatch_copy"/></defs><title>logo_full_secondary</title><g id="Layer_2" data-name="Layer 2"><g id="Content"><path class="cls-1" d="M124.07,69l-2.39-.51a19.46,19.46,0,0,1-4.45-1.52,19.14,19.14,0,0,1-3.87-2.54l3.22-4a14.45,14.45,0,0,0,4.65,2.74,16.13,16.13,0,0,0,5.51.91A11.11,11.11,0,0,0,133,62.59a4.78,4.78,0,0,0,2.21-4.2v0a4.43,4.43,0,0,0-1-3.06,6,6,0,0,0-2.59-1.67,28.16,28.16,0,0,0-4.1-1l-.16,0a.47.47,0,0,1-.17,0l-.38-.07a40.8,40.8,0,0,1-6-1.44,8.48,8.48,0,0,1-4-2.92,9.62,9.62,0,0,1-1.65-6v0a10.77,10.77,0,0,1,1.53-5.86,9.66,9.66,0,0,1,4.49-3.69,19.43,19.43,0,0,1,11-.84A20.05,20.05,0,0,1,135.89,33a22.34,22.34,0,0,1,3.67,2.15l-2.95,4.11a17.25,17.25,0,0,0-4.2-2.32,12,12,0,0,0-4.2-.78,10,10,0,0,0-5.88,1.51,5,5,0,0,0-2.09,4.28v0a4.09,4.09,0,0,0,1.08,3A6.61,6.61,0,0,0,124,46.57a44,44,0,0,0,4.48,1.08l.19,0,.19,0,.28.05.28,0a30.73,30.73,0,0,1,5.6,1.63,8.78,8.78,0,0,1,3.75,3,9.62,9.62,0,0,1,1.51,5.73v0A10.23,10.23,0,0,1,138.7,64a10.08,10.08,0,0,1-4.64,3.65A19,19,0,0,1,126.74,69Z"/><path class="cls-1" d="M145.12,42.21H157v4.67H145.12Zm4.2,24.72a8,8,0,0,1-1.48-5.22V34.54H153V61.76a2.45,2.45,0,0,0,.38,1.49,1.27,1.27,0,0,0,1.11.52H157V68.7h-3A5.78,5.78,0,0,1,149.32,66.93Z"/><path class="cls-1" d="M169.29,58.23a6,6,0,0,0,1.41,4.28,5.15,5.15,0,0,0,4,1.51,5.47,5.47,0,0,0,3.94-1.34,5.1,5.1,0,0,0,1.4-3.84l.35,5.51a7.44,7.44,0,0,1-7.13,4.6,8.34,8.34,0,0,1-6.74-2.81c-1.59-1.87-2.38-4.5-2.38-7.91v-16h5.18Zm10.72-16h5.15V68.57H180Z"/><path class="cls-1" d="M196.45,67.77a7.89,7.89,0,0,1-3.11-3.67,14.28,14.28,0,0,1-1.07-5.79V52.5a14.73,14.73,0,0,1,1-5.82,7.91,7.91,0,0,1,3-3.67,8.79,8.79,0,0,1,4.79-1.25A7.92,7.92,0,0,1,205.41,43a9,9,0,0,1,3.13,3.43L208,51.79a6.18,6.18,0,0,0-.61-2.87,4.13,4.13,0,0,0-1.76-1.82,5.92,5.92,0,0,0-2.81-.62,5,5,0,0,0-4,1.6,6.55,6.55,0,0,0-1.41,4.49v5.74a6.39,6.39,0,0,0,1.41,4.43,5.07,5.07,0,0,0,4,1.56,5.59,5.59,0,0,0,2.81-.65,4.22,4.22,0,0,0,1.76-1.86,6.42,6.42,0,0,0,.61-2.92l.36,5.56a7.66,7.66,0,0,1-2.58,3.28A7.28,7.28,0,0,1,201.38,69,9.22,9.22,0,0,1,196.45,67.77ZM208,31.65h5.18V68.57H208Z"/><path class="cls-1" d="M218.27,42.21h5.28l8.1,22.91-2.87,5.61Zm23.33,0L230.38,74.74a7.74,7.74,0,0,1-1.6,2.85,5.57,5.57,0,0,1-2.44,1.52,12.08,12.08,0,0,1-3.55.45h-1v-5h1a4,4,0,0,0,2.3-.59,4.72,4.72,0,0,0,1.48-2l9.75-29.79Z"/><path class="cls-1" d="M260.65,31.65h5.15V68.57h-5.15Zm3,32.12h10q3.93,0,5.74-1.5a5.17,5.17,0,0,0,1.8-4.21V58a7.37,7.37,0,0,0-.65-3.22,4.45,4.45,0,0,0-2-2.07A7.68,7.68,0,0,0,275,52H263.69V47.29H275A6.24,6.24,0,0,0,279.3,46a5.18,5.18,0,0,0,1.46-4,5.11,5.11,0,0,0-1.63-4.14,7.43,7.43,0,0,0-4.87-1.37H263.69v-4.8H275.2a13.26,13.26,0,0,1,6,1.22,8,8,0,0,1,3.6,3.45,11.13,11.13,0,0,1,1.2,5.33,8.74,8.74,0,0,1-.74,3.57A7.26,7.26,0,0,1,283,48.06a8.32,8.32,0,0,1-3.74,1.59,8.14,8.14,0,0,1,3.86,1.59,8.32,8.32,0,0,1,2.49,3.14,9.66,9.66,0,0,1,.86,4.06v.07a10.35,10.35,0,0,1-1.32,5.28,8.85,8.85,0,0,1-3.78,3.53,12.6,12.6,0,0,1-5.74,1.25H263.69Z"/><path class="cls-1" d="M298,67.6a8.77,8.77,0,0,1-3.72-3.92,13.76,13.76,0,0,1-1.29-6.21V53.18a13.44,13.44,0,0,1,1.29-6.13A8.81,8.81,0,0,1,298,43.16a13.6,13.6,0,0,1,11.73,0,8.91,8.91,0,0,1,3.72,3.89,13.57,13.57,0,0,1,1.28,6.13v4.37a13.7,13.7,0,0,1-1.28,6.16,8.91,8.91,0,0,1-3.72,3.89,13.42,13.42,0,0,1-11.73,0ZM308,62.32a7,7,0,0,0,1.49-4.77V53.18A6.93,6.93,0,0,0,308,48.43a6.12,6.12,0,0,0-8.4,0,6.93,6.93,0,0,0-1.49,4.75v4.37a7,7,0,0,0,1.49,4.77,6,6,0,0,0,8.4,0Z"/><path class="cls-1" d="M328.69,54l2.49,4.77-6.7,9.78h-5.74Zm.16,2.56-9.7-14.37h5.76L332.48,54l10,14.55h-5.74Zm1.67-5,5.77-9.35h5.76l-9.34,14.22Z"/><g id="Logo_Primary" data-name="Logo Primary"><polygon class="cls-2" points="16.59 31.18 1.69 16.27 31.8 1.22 47.41 16.82 77.76 32 48 46.88 16.59 31.18"/><path class="cls-1" d="M31.61,2.43l15,15,.23.23.29.15L75.53,32,48,45.76,17.18,30.36,3.38,16.55,31.61,2.43M32,0,0,16,16,32,48,48,80,32,48,16,32,0Z"/><polygon class="cls-3" points="49 48.62 79 33.62 79 63.38 49 78.38 49 48.62"/><path class="cls-1" d="M78,35.24V62.76l-28,14V49.24l28-14M80,32,48,48V80L80,64V32Z"/><polygon class="cls-1" points="16 32 16 64 48 80 48 48 16 32"/><polygon class="cls-1" points="64 64 96 48 80 32 48 48 64 64"/></g></g></g></svg>