<svg xmlns="http://www.w3.org/2000/svg" viewBox="0 0 229.1 48.29"><defs><style>.cls-1{fill:#fff;}</style></defs><title>logo_text_secondary</title><g id="Layer_2" data-name="Layer 2"><g id="Content"><path class="cls-1" d="M13,44.84l-2.39-.51a19,19,0,0,1-4.45-1.52,18.72,18.72,0,0,1-3.87-2.54l3.22-4a14.45,14.45,0,0,0,4.65,2.74,16.13,16.13,0,0,0,5.51.91,11.11,11.11,0,0,0,6.22-1.48,4.78,4.78,0,0,0,2.21-4.2v0a4.45,4.45,0,0,0-1-3.06,6,6,0,0,0-2.59-1.67,28.16,28.16,0,0,0-4.1-1l-.16,0a.47.47,0,0,1-.17,0l-.38-.07a40.8,40.8,0,0,1-6-1.44,8.41,8.41,0,0,1-4-2.92A9.62,9.62,0,0,1,4,18v0a10.77,10.77,0,0,1,1.53-5.86,9.75,9.75,0,0,1,4.48-3.69,17.83,17.83,0,0,1,7.09-1.27,17.59,17.59,0,0,1,3.9.43,20.05,20.05,0,0,1,3.78,1.28A22.34,22.34,0,0,1,28.49,11l-2.95,4.11a17.25,17.25,0,0,0-4.2-2.32,12,12,0,0,0-4.2-.77,10,10,0,0,0-5.88,1.5,5,5,0,0,0-2.09,4.28v0a4.09,4.09,0,0,0,1.08,3,6.54,6.54,0,0,0,2.69,1.61,43.37,43.37,0,0,0,4.48,1.08l.19,0,.19,0,.28.05.28.05A30.73,30.73,0,0,1,24,25.34a8.78,8.78,0,0,1,3.75,3,9.62,9.62,0,0,1,1.51,5.73v0a10.23,10.23,0,0,1-1.59,5.78A10,10,0,0,1,23,43.58a19,19,0,0,1-7.32,1.26Z" transform="translate(-2.29 -7.16)"/><path class="cls-1" d="M34.05,18.1H45.93v4.68H34.05Zm4.2,24.72a7.93,7.93,0,0,1-1.48-5.22V10.44H42V37.65a2.45,2.45,0,0,0,.38,1.49,1.27,1.27,0,0,0,1.11.52h2.49v4.93h-3A5.78,5.78,0,0,1,38.25,42.82Z" transform="translate(-2.29 -7.16)"/><path class="cls-1" d="M58.22,34.13a6,6,0,0,0,1.41,4.27,5.15,5.15,0,0,0,4,1.51,5.47,5.47,0,0,0,3.94-1.34,5.1,5.1,0,0,0,1.4-3.84l.35,5.51a7.44,7.44,0,0,1-7.13,4.6A8.34,8.34,0,0,1,55.42,42Q53,39.22,53,34.13v-16h5.18Zm10.72-16h5.15V44.46H68.94Z" transform="translate(-2.29 -7.16)"/><path class="cls-1" d="M85.38,43.66A7.89,7.89,0,0,1,82.27,40,14.12,14.12,0,0,1,81.2,34.2V28.39a14.73,14.73,0,0,1,1-5.82,7.91,7.91,0,0,1,3-3.67,8.79,8.79,0,0,1,4.79-1.25,7.84,7.84,0,0,1,4.28,1.22,8.94,8.94,0,0,1,3.13,3.42l-.53,5.39a6.18,6.18,0,0,0-.61-2.87A4.13,4.13,0,0,0,94.57,23a5.92,5.92,0,0,0-2.81-.62,5,5,0,0,0-4,1.6,6.57,6.57,0,0,0-1.41,4.49V34.2a6.39,6.39,0,0,0,1.41,4.43,5.07,5.07,0,0,0,4,1.56,5.59,5.59,0,0,0,2.81-.65,4.22,4.22,0,0,0,1.76-1.86,6.42,6.42,0,0,0,.61-2.92l.36,5.56a7.66,7.66,0,0,1-2.58,3.28,7.28,7.28,0,0,1-4.41,1.32A9.19,9.19,0,0,1,85.38,43.66ZM96.94,7.54h5.18V44.46H96.94Z" transform="translate(-2.29 -7.16)"/><path class="cls-1" d="M107.2,18.1h5.28L120.58,41l-2.87,5.61Zm23.33,0L119.31,50.63a7.74,7.74,0,0,1-1.6,2.85A5.57,5.57,0,0,1,115.27,55a12.08,12.08,0,0,1-3.55.45h-1v-5h1a4,4,0,0,0,2.3-.59,4.72,4.72,0,0,0,1.48-2l9.75-29.79Z" transform="translate(-2.29 -7.16)"/><path class="cls-1" d="M149.58,7.54h5.15V44.46h-5.15Zm3,32.12h10q3.93,0,5.74-1.5a5.17,5.17,0,0,0,1.8-4.21v-.08a7.37,7.37,0,0,0-.65-3.22,4.45,4.45,0,0,0-2-2.07,7.68,7.68,0,0,0-3.58-.73H152.62V23.18H163.9a6.24,6.24,0,0,0,4.33-1.34,5.18,5.18,0,0,0,1.46-4,5.13,5.13,0,0,0-1.63-4.14,7.43,7.43,0,0,0-4.87-1.37H152.62V7.54h11.51a13.26,13.26,0,0,1,6,1.22,8,8,0,0,1,3.6,3.45,11.13,11.13,0,0,1,1.2,5.33,8.74,8.74,0,0,1-.74,3.57A7.36,7.36,0,0,1,171.93,24a8.43,8.43,0,0,1-3.74,1.58,8.14,8.14,0,0,1,3.86,1.59,8.32,8.32,0,0,1,2.49,3.14,9.66,9.66,0,0,1,.86,4.06v.07a10.41,10.41,0,0,1-1.32,5.29,8.85,8.85,0,0,1-3.79,3.52,12.53,12.53,0,0,1-5.73,1.25H152.62Z" transform="translate(-2.29 -7.16)"/><path class="cls-1" d="M186.88,43.49a8.77,8.77,0,0,1-3.72-3.92,13.76,13.76,0,0,1-1.29-6.21V29.07a13.47,13.47,0,0,1,1.29-6.13,8.81,8.81,0,0,1,3.72-3.89,13.6,13.6,0,0,1,11.73,0,8.91,8.91,0,0,1,3.72,3.89,13.6,13.6,0,0,1,1.28,6.13v4.37a13.7,13.7,0,0,1-1.28,6.16,8.91,8.91,0,0,1-3.72,3.89,13.42,13.42,0,0,1-11.73,0Zm10.06-5.28a7,7,0,0,0,1.49-4.77V29.07a6.93,6.93,0,0,0-1.49-4.75,6.12,6.12,0,0,0-8.4,0,6.93,6.93,0,0,0-1.49,4.75v4.37a7,7,0,0,0,1.49,4.77,6,6,0,0,0,8.4,0Z" transform="translate(-2.29 -7.16)"/><path class="cls-1" d="M217.62,29.91l2.49,4.77-6.7,9.78h-5.74Zm.16,2.56-9.7-14.37h5.76l7.57,11.81,10,14.55h-5.73Zm1.67-5,5.76-9.35H231l-9.35,14.22Z" transform="translate(-2.29 -7.16)"/></g></g></svg>