<svg xmlns="http://www.w3.org/2000/svg" xmlns:xlink="http://www.w3.org/1999/xlink" viewBox="0 0 48 48"><defs><style>.cls-1{fill:url(#linear-gradient);}.cls-2{fill:#e6e6e6;}.cls-3{fill:#fff;}.cls-4{fill:none;}</style><linearGradient id="linear-gradient" x1="2.34" y1="2.34" x2="45.66" y2="45.66" gradientUnits="userSpaceOnUse"><stop offset="0" stop-color="#00d460"/><stop offset="0.22" stop-color="#00d465"/><stop offset="0.47" stop-color="#00d572"/><stop offset="0.72" stop-color="#00d788"/><stop offset="0.99" stop-color="#00daa7"/><stop offset="1" stop-color="#00daa9"/></linearGradient></defs><title>icon_android</title><g id="Layer_2" data-name="Layer 2"><g id="Content"><g id="Logo_64px" data-name="Logo 64px"><rect class="cls-1" width="48" height="48" rx="8"/><polygon class="cls-2" points="36.38 21 24.38 15 18.38 9 6.38 15 12.38 21 12.38 33 24.38 39 36.38 33 36.38 21"/><polygon class="cls-3" points="12.38 21 12.38 33 24.38 39 24.38 27 12.38 21"/><polygon class="cls-3" points="30.38 33 42.38 27 36.38 21 24.38 27 30.38 33"/><polygon class="cls-4" points="24.38 27 12.38 21 13.13 20.63 25.13 26.63 24.38 27"/><polygon class="cls-4" points="24.38 27 36.38 21 35.63 20.63 23.63 26.63 24.38 27"/></g></g></g></svg>